<svg xmlns="http://www.w3.org/2000/svg" id="canvas" viewBox="611.391 477.498 1144.849 290.027"><path d="M 802.37,485.05 C 801.43 482.92, 799.74 481.63, 796.14 480.89 C 792.55 480.15, 789.83 480.55, 784.41 481.33 C 778.99 482.12, 775.61 482.67, 769.04 484.82 C 762.46 486.98, 758.75 488.52, 751.52 492.12 C 744.28 495.71, 740.26 497.90, 732.86 502.79 C 725.46 507.68, 721.29 510.34, 714.52 516.58 C 707.74 522.82, 704.10 526.83, 698.97 534.01 C 693.83 541.19, 691.25 544.87, 688.85 552.48 C 686.45 560.09, 685.96 564.33, 686.97 572.04 C 687.98 579.76, 689.86 583.74, 693.91 591.05 C 697.96 598.36, 701.10 601.80, 707.20 608.59 C 713.31 615.38, 717.37 618.47, 724.43 625.01 C 731.50 631.56, 735.82 634.75, 742.54 641.30 C 749.27 647.86, 752.84 651.49, 758.07 657.79 C 763.31 664.09, 766.07 666.99, 768.72 672.81 C 771.37 678.64, 772.11 681.12, 771.32 686.92 C 770.54 692.72, 769.34 695.70, 764.80 701.81 C 760.26 707.93, 756.66 711.29, 748.62 717.50 C 740.57 723.71, 735.03 727.29, 724.57 732.86 C 714.10 738.42, 707.60 741.01, 696.28 745.32 C 684.97 749.62, 678.47 751.67, 668.00 754.37 C 657.52 757.07, 652.04 758.24, 643.93 758.82 C 635.81 759.41, 631.88 758.40, 627.41 757.30 C 622.95 756.21, 622.33 755.54, 621.60 753.33 C 620.87 751.12, 620.84 750.34, 623.77 746.27 C 626.70 742.19, 629.14 738.77, 636.25 732.94 C 643.36 727.12, 648.52 723.67, 659.34 717.13 C 670.15 710.59, 676.79 706.80, 690.32 700.25 C 703.85 693.71, 713.44 689.89, 726.98 684.40 C 740.52 678.91, 747.66 676.43, 758.02 672.81 C 768.38 669.18, 774.84 668.28, 778.78 666.29 C 782.71 664.30, 782.07 662.20, 777.69 662.85 C 773.30 663.49, 767.27 665.85, 756.86 669.50 C 746.45 673.14, 739.25 675.57, 725.63 681.06 C 712.01 686.55, 702.43 690.47, 688.74 696.95 C 675.05 703.42, 668.35 707.10, 657.17 713.43 C 645.99 719.75, 640.63 722.78, 632.85 728.59 C 625.07 734.40, 621.82 737.08, 618.26 742.49 C 614.70 747.90, 613.52 751.49, 615.04 755.64 C 616.55 759.80, 619.97 761.62, 625.84 763.26 C 631.71 764.90, 635.73 764.78, 644.38 763.84 C 653.04 762.90, 658.43 761.47, 669.11 758.54 C 679.78 755.61, 686.26 753.55, 697.75 749.19 C 709.25 744.83, 715.83 742.28, 726.59 736.73 C 737.36 731.17, 743.06 727.73, 751.57 721.40 C 760.09 715.07, 764.07 711.82, 769.16 705.08 C 774.26 698.34, 776.10 694.62, 777.05 687.70 C 778.01 680.78, 776.90 677.15, 773.93 670.47 C 770.96 663.79, 767.77 660.89, 762.21 654.32 C 756.65 647.75, 752.97 644.23, 746.12 637.62 C 739.26 631.00, 734.91 627.77, 727.93 621.25 C 720.95 614.74, 717.02 611.61, 711.20 605.03 C 705.37 598.45, 702.52 595.10, 698.78 588.35 C 695.05 581.60, 693.46 578.14, 692.53 571.30 C 691.60 564.46, 691.97 560.98, 694.14 554.16 C 696.32 547.33, 698.59 543.89, 703.40 537.18 C 708.21 530.47, 711.68 526.52, 718.20 520.61 C 724.71 514.70, 728.76 512.14, 735.97 507.63 C 743.18 503.11, 747.23 501.06, 754.27 498.05 C 761.30 495.04, 764.97 493.89, 771.15 492.57 C 777.32 491.24, 780.41 491.38, 785.15 491.43 C 789.88 491.48, 791.66 492.79, 794.80 492.80 C 797.95 492.82, 799.35 493.06, 800.87 491.51 C 802.38 489.96, 803.32 487.17, 802.37 485.05" style="stroke: black; fill: black;"/><path d="M 833.36,715.98 C 835.90 716.87, 838.84 716.36, 840.17 714.73 C 841.50 713.09, 841.40 710.11, 840.02 707.81 C 838.65 705.50, 835.78 703.87, 833.29 703.20 C 830.80 702.52, 828.73 703.00, 827.57 704.42 C 826.41 705.83, 826.32 707.97, 827.48 710.28 C 828.64 712.59, 830.82 715.09, 833.36 715.98" style="stroke: black; fill: black;"/><path d="M 988.96,537.68 C 991.74 537.61, 993.98 534.16, 997.71 531.43 C 1001.44 528.70, 1006.64 526.98, 1007.61 524.03 C 1008.57 521.07, 1005.72 516.76, 1002.53 516.67 C 999.34 516.58, 995.40 520.55, 991.66 523.58 C 987.92 526.61, 984.37 528.99, 983.83 531.81 C 983.29 534.63, 986.19 537.76, 988.96 537.68" style="stroke: black; fill: black;"/><path d="M 965.93,548.56 C 963.58 550.96, 962.69 555.53, 959.86 563.06 C 957.03 570.59, 954.75 576.09, 951.79 586.21 C 948.83 596.33, 947.26 602.87, 945.07 613.67 C 942.88 624.47, 942.05 629.99, 940.85 640.22 C 939.65 650.45, 939.12 655.62, 939.09 664.83 C 939.06 674.05, 939.14 678.71, 940.70 686.29 C 942.27 693.88, 943.10 697.32, 946.89 702.77 C 950.68 708.22, 953.53 710.76, 959.66 713.55 C 965.79 716.33, 969.78 716.85, 977.56 716.71 C 985.35 716.56, 989.77 715.48, 998.58 712.81 C 1007.40 710.15, 1012.44 707.87, 1021.65 703.39 C 1030.86 698.91, 1035.87 695.92, 1044.64 690.42 C 1053.40 684.91, 1058.30 681.44, 1065.48 675.85 C 1072.67 670.26, 1076.06 667.02, 1080.56 662.47 C 1085.06 657.92, 1087.28 655.62, 1087.98 653.10 C 1088.69 650.59, 1086.35 648.80, 1084.08 649.89 C 1081.81 650.98, 1081.03 654.21, 1076.65 658.57 C 1072.27 662.92, 1069.11 666.12, 1062.18 671.66 C 1055.25 677.19, 1050.55 680.82, 1042.01 686.25 C 1033.46 691.69, 1028.46 694.58, 1019.46 698.83 C 1010.47 703.07, 1005.43 705.13, 997.03 707.48 C 988.63 709.83, 984.43 710.53, 977.48 710.58 C 970.53 710.63, 967.39 710.00, 962.27 707.74 C 957.15 705.47, 955.12 703.78, 951.89 699.26 C 948.65 694.73, 947.68 692.02, 946.11 685.12 C 944.53 678.23, 944.14 673.68, 944.00 664.80 C 943.86 655.93, 944.26 650.78, 945.42 640.75 C 946.58 630.72, 947.51 625.26, 949.78 614.65 C 952.05 604.04, 953.73 597.62, 956.77 587.70 C 959.80 577.78, 962.00 572.38, 964.97 565.05 C 967.93 557.73, 971.39 554.38, 971.58 551.08 C 971.77 547.79, 968.27 546.17, 965.93 548.56" style="stroke: black; fill: black;"/><path d="M 967.06,623.22 C 968.52 624.51, 969.36 625.73, 971.87 625.05 C 974.38 624.37, 975.34 622.54, 979.59 619.84 C 983.85 617.14, 986.75 615.19, 993.14 611.56 C 999.54 607.93, 1003.71 605.66, 1011.58 601.69 C 1019.45 597.72, 1023.91 595.73, 1032.49 591.72 C 1041.08 587.70, 1045.86 585.52, 1054.49 581.63 C 1063.12 577.73, 1067.60 575.61, 1075.65 572.26 C 1083.71 568.90, 1088.05 567.08, 1094.75 564.84 C 1101.44 562.61, 1105.01 561.72, 1109.11 561.09 C 1113.20 560.47, 1113.90 560.81, 1115.22 561.73 C 1116.54 562.66, 1116.09 562.40, 1115.70 565.72 C 1115.31 569.04, 1114.71 572.08, 1113.27 578.34 C 1111.83 584.59, 1110.52 588.97, 1108.51 596.99 C 1106.51 605.00, 1105.01 609.84, 1103.24 618.43 C 1101.48 627.02, 1100.38 631.77, 1099.69 639.95 C 1099.00 648.12, 1098.99 652.49, 1099.81 659.30 C 1100.63 666.12, 1101.30 668.85, 1103.79 674.00 C 1106.28 679.16, 1108.01 681.90, 1112.25 685.08 C 1116.50 688.25, 1119.73 689.53, 1125.01 689.90 C 1130.29 690.27, 1133.10 689.06, 1138.65 686.91 C 1144.21 684.77, 1147.34 683.34, 1152.79 679.17 C 1158.25 675.01, 1161.00 672.12, 1165.92 666.08 C 1170.85 660.04, 1173.26 656.15, 1177.43 648.97 C 1181.59 641.80, 1183.56 637.13, 1186.75 630.21 C 1189.94 623.30, 1191.33 620.37, 1193.39 614.40 C 1195.45 608.44, 1196.11 605.39, 1197.05 600.40 C 1197.98 595.41, 1198.24 593.17, 1198.08 589.45 C 1197.93 585.74, 1197.09 583.75, 1196.25 581.81 C 1195.42 579.86, 1194.25 579.79, 1193.90 579.74 C 1193.55 579.69, 1193.37 581.39, 1194.50 581.55 C 1195.63 581.71, 1196.32 581.26, 1199.55 580.54 C 1202.78 579.82, 1205.17 578.95, 1210.65 577.96 C 1216.14 576.97, 1219.79 576.65, 1226.97 575.59 C 1234.15 574.54, 1238.21 573.81, 1246.55 572.67 C 1254.89 571.54, 1259.77 571.11, 1268.68 569.90 C 1277.58 568.70, 1282.20 567.99, 1291.08 566.65 C 1299.96 565.30, 1304.61 564.38, 1313.08 563.19 C 1321.54 561.99, 1326.03 561.33, 1333.40 560.67 C 1340.77 560.00, 1344.16 559.74, 1349.92 559.84 C 1355.67 559.94, 1358.52 561.08, 1362.17 561.16 C 1365.83 561.25, 1367.04 561.44, 1368.20 560.28 C 1369.35 559.11, 1368.98 557.12, 1367.93 555.34 C 1366.88 553.56, 1365.72 551.59, 1362.94 551.38 C 1360.15 551.17, 1358.25 552.84, 1354.02 554.29 C 1349.79 555.74, 1347.34 556.46, 1341.76 558.65 C 1336.19 560.83, 1332.88 561.76, 1326.14 565.22 C 1319.40 568.68, 1315.61 571.02, 1308.08 575.95 C 1300.56 580.88, 1295.88 583.90, 1288.51 589.89 C 1281.13 595.88, 1277.33 599.31, 1271.21 605.91 C 1265.08 612.51, 1262.03 616.50, 1257.88 622.90 C 1253.73 629.29, 1251.69 632.29, 1250.47 637.89 C 1249.25 643.49, 1249.31 646.95, 1251.79 650.88 C 1254.28 654.80, 1257.70 656.55, 1262.88 657.51 C 1268.06 658.47, 1271.22 657.46, 1277.68 655.69 C 1284.13 653.92, 1288.04 652.28, 1295.16 648.68 C 1302.28 645.08, 1306.00 642.73, 1313.28 637.69 C 1320.56 632.65, 1324.37 629.41, 1331.54 623.48 C 1338.71 617.54, 1342.76 614.07, 1349.13 608.00 C 1355.50 601.93, 1359.05 598.04, 1363.39 593.14 C 1367.73 588.24, 1370.50 586.19, 1370.83 583.50 C 1371.15 580.80, 1367.54 578.76, 1365.02 579.64 C 1362.50 580.53, 1361.07 583.18, 1358.24 587.92 C 1355.40 592.66, 1353.31 596.82, 1350.83 603.36 C 1348.36 609.90, 1346.83 614.10, 1345.86 620.64 C 1344.88 627.17, 1344.47 630.74, 1345.96 636.02 C 1347.46 641.30, 1349.07 644.37, 1353.33 647.04 C 1357.59 649.71, 1361.10 649.85, 1367.26 649.37 C 1373.42 648.90, 1376.77 647.72, 1384.12 644.65 C 1391.48 641.59, 1395.62 639.10, 1404.04 634.05 C 1412.46 629.00, 1417.15 625.74, 1426.24 619.40 C 1435.33 613.07, 1440.42 609.07, 1449.48 602.38 C 1458.54 595.69, 1463.94 591.37, 1471.52 585.94 C 1479.11 580.50, 1483.56 578.18, 1487.40 575.21 C 1491.24 572.24, 1491.01 570.94, 1490.72 571.08 C 1490.43 571.21, 1488.80 571.89, 1485.96 575.89 C 1483.12 579.89, 1480.76 584.47, 1476.51 591.08 C 1472.26 597.70, 1469.04 602.38, 1464.71 608.96 C 1460.38 615.54, 1457.65 618.76, 1454.86 623.98 C 1452.07 629.20, 1449.98 631.63, 1450.77 635.06 C 1451.56 638.48, 1454.65 641.42, 1458.82 641.10 C 1462.98 640.77, 1465.30 637.94, 1471.59 633.45 C 1477.88 628.96, 1481.59 625.30, 1490.28 618.65 C 1498.96 612.01, 1504.88 607.10, 1514.99 600.21 C 1525.11 593.32, 1531.59 589.17, 1540.83 584.21 C 1550.08 579.25, 1555.13 577.28, 1561.23 575.41 C 1567.33 573.55, 1569.26 574.07, 1571.33 574.89 C 1573.41 575.71, 1572.39 576.03, 1571.60 579.50 C 1570.80 582.98, 1569.80 586.41, 1567.35 592.27 C 1564.91 598.13, 1562.47 602.09, 1559.35 608.81 C 1556.24 615.53, 1553.80 619.54, 1551.79 625.85 C 1549.78 632.16, 1548.50 635.28, 1549.32 640.36 C 1550.14 645.44, 1551.75 649.06, 1555.89 651.25 C 1560.02 653.43, 1563.24 652.90, 1569.98 651.30 C 1576.73 649.70, 1580.77 647.81, 1589.64 643.25 C 1598.50 638.69, 1603.66 635.30, 1614.32 628.52 C 1624.97 621.73, 1631.30 617.38, 1642.93 609.34 C 1654.56 601.30, 1661.11 596.34, 1672.49 588.33 C 1683.86 580.33, 1689.82 575.77, 1699.82 569.31 C 1709.82 562.86, 1714.89 559.98, 1722.50 556.05 C 1730.11 552.12, 1733.63 550.99, 1737.89 549.65 C 1742.15 548.31, 1742.92 549.03, 1743.80 549.35 C 1744.68 549.68, 1743.02 549.62, 1742.27 551.28 C 1741.53 552.93, 1741.21 554.17, 1740.09 557.62 C 1738.98 561.06, 1738.34 563.67, 1736.71 568.50 C 1735.09 573.33, 1734.16 576.41, 1731.98 581.79 C 1729.80 587.17, 1728.44 590.05, 1725.80 595.41 C 1723.16 600.77, 1721.71 603.54, 1718.77 608.59 C 1715.84 613.64, 1714.44 616.17, 1711.13 620.67 C 1707.82 625.17, 1705.75 627.21, 1702.21 631.09 C 1698.67 634.98, 1696.76 636.89, 1693.41 640.09 C 1690.06 643.29, 1688.12 644.54, 1685.48 647.08 C 1682.83 649.61, 1681.46 650.43, 1680.19 652.76 C 1678.92 655.10, 1678.51 656.86, 1679.12 658.76 C 1679.74 660.67, 1681.30 661.93, 1683.24 662.27 C 1685.19 662.60, 1686.72 661.91, 1688.84 660.44 C 1690.95 658.96, 1691.48 657.65, 1693.81 654.89 C 1696.13 652.12, 1697.49 650.25, 1700.46 646.60 C 1703.43 642.95, 1705.25 640.89, 1708.68 636.64 C 1712.11 632.38, 1714.24 630.14, 1717.61 625.31 C 1720.98 620.49, 1722.44 617.76, 1725.52 612.52 C 1728.59 607.28, 1730.06 604.51, 1732.96 599.09 C 1735.86 593.67, 1737.34 590.77, 1740.01 585.42 C 1742.68 580.07, 1744.03 577.21, 1746.30 572.35 C 1748.57 567.50, 1750.04 565.45, 1751.36 561.15 C 1752.67 556.84, 1753.85 554.51, 1752.89 550.83 C 1751.92 547.14, 1749.92 544.17, 1746.52 542.74 C 1743.12 541.30, 1741.16 541.83, 1735.90 543.67 C 1730.64 545.51, 1727.87 547.45, 1720.23 551.93 C 1712.58 556.41, 1707.65 559.38, 1697.69 566.07 C 1687.72 572.77, 1681.78 577.35, 1670.41 585.39 C 1659.04 593.42, 1652.50 598.37, 1640.82 606.25 C 1629.14 614.13, 1622.74 618.39, 1612.02 624.80 C 1601.31 631.21, 1595.95 634.34, 1587.23 638.28 C 1578.52 642.23, 1574.01 643.36, 1568.46 644.53 C 1562.90 645.71, 1561.66 645.17, 1559.46 644.16 C 1557.25 643.16, 1557.47 642.69, 1557.42 639.51 C 1557.37 636.33, 1557.40 633.73, 1559.22 628.26 C 1561.03 622.79, 1563.39 618.74, 1566.49 612.14 C 1569.59 605.54, 1572.22 601.66, 1574.73 595.25 C 1577.24 588.84, 1579.19 585.32, 1579.06 580.07 C 1578.93 574.83, 1577.96 571.01, 1574.08 569.03 C 1570.19 567.06, 1566.73 568.00, 1559.62 570.20 C 1552.52 572.40, 1548.01 574.81, 1538.56 580.03 C 1529.11 585.25, 1522.69 589.48, 1512.37 596.30 C 1502.06 603.13, 1495.91 607.89, 1486.98 614.17 C 1478.05 620.44, 1473.85 623.88, 1467.73 627.68 C 1461.62 631.48, 1458.43 631.62, 1456.41 633.18 C 1454.38 634.75, 1456.52 636.56, 1457.61 635.50 C 1458.69 634.45, 1459.14 632.39, 1461.83 627.91 C 1464.52 623.43, 1466.76 619.62, 1471.03 613.12 C 1475.30 606.61, 1478.82 602.11, 1483.17 595.38 C 1487.53 588.66, 1490.77 584.75, 1492.81 579.51 C 1494.85 574.28, 1495.12 571.15, 1493.37 569.21 C 1491.62 567.28, 1489.07 567.33, 1484.07 569.83 C 1479.07 572.33, 1475.85 575.95, 1468.38 581.72 C 1460.91 587.49, 1455.69 591.93, 1446.72 598.68 C 1437.76 605.44, 1432.64 609.38, 1423.56 615.51 C 1414.49 621.64, 1409.70 624.74, 1401.33 629.34 C 1392.97 633.94, 1388.67 636.03, 1381.74 638.49 C 1374.82 640.96, 1371.53 641.36, 1366.72 641.65 C 1361.91 641.94, 1360.24 641.49, 1357.69 639.96 C 1355.15 638.44, 1354.71 637.58, 1354.01 634.02 C 1353.30 630.46, 1352.97 627.53, 1354.16 622.14 C 1355.35 616.76, 1357.36 612.98, 1359.97 607.09 C 1362.57 601.20, 1364.91 597.48, 1367.17 592.70 C 1369.43 587.93, 1371.69 586.00, 1371.27 583.23 C 1370.85 580.46, 1367.74 577.81, 1365.06 578.85 C 1362.37 579.90, 1361.83 583.45, 1357.83 588.46 C 1353.83 593.47, 1351.01 597.74, 1345.06 603.90 C 1339.11 610.07, 1335.08 613.50, 1328.07 619.28 C 1321.06 625.07, 1317.19 628.19, 1310.03 632.85 C 1302.87 637.50, 1299.12 639.53, 1292.26 642.55 C 1285.40 645.57, 1281.34 646.65, 1275.72 647.94 C 1270.09 649.23, 1267.55 649.30, 1264.15 648.99 C 1260.75 648.67, 1260.03 648.28, 1258.70 646.37 C 1257.38 644.46, 1256.65 643.47, 1257.52 639.42 C 1258.40 635.37, 1259.53 632.09, 1263.07 626.13 C 1266.62 620.17, 1269.49 616.02, 1275.26 609.62 C 1281.03 603.23, 1284.73 599.87, 1291.93 594.15 C 1299.13 588.42, 1303.84 585.51, 1311.27 580.99 C 1318.70 576.46, 1322.49 574.26, 1329.08 571.52 C 1335.66 568.78, 1338.79 568.19, 1344.19 567.28 C 1349.60 566.37, 1351.78 566.95, 1356.11 566.99 C 1360.44 567.04, 1362.88 568.75, 1365.84 567.51 C 1368.80 566.27, 1370.08 563.59, 1370.91 560.78 C 1371.73 557.97, 1371.64 555.38, 1369.96 553.48 C 1368.28 551.58, 1366.59 551.46, 1362.51 551.29 C 1358.43 551.11, 1355.52 551.93, 1349.56 552.60 C 1343.60 553.28, 1340.17 553.63, 1332.71 554.67 C 1325.25 555.70, 1320.75 556.42, 1312.26 557.77 C 1303.78 559.11, 1299.15 560.05, 1290.29 561.38 C 1281.44 562.70, 1276.87 563.37, 1267.99 564.40 C 1259.10 565.43, 1254.20 565.78, 1245.85 566.54 C 1237.51 567.30, 1233.44 567.87, 1226.25 568.21 C 1219.05 568.56, 1215.62 568.36, 1209.89 568.26 C 1204.15 568.16, 1201.74 567.28, 1197.56 567.71 C 1193.38 568.14, 1191.65 568.37, 1188.99 570.41 C 1186.33 572.44, 1185.20 574.87, 1184.26 577.89 C 1183.32 580.92, 1183.69 582.88, 1184.29 585.53 C 1184.88 588.19, 1186.37 588.40, 1187.24 591.17 C 1188.11 593.95, 1188.78 595.21, 1188.65 599.43 C 1188.53 603.66, 1188.18 606.67, 1186.63 612.29 C 1185.07 617.92, 1183.81 620.87, 1180.87 627.57 C 1177.94 634.26, 1175.96 638.93, 1171.94 645.77 C 1167.93 652.62, 1165.51 656.32, 1160.80 661.79 C 1156.08 667.25, 1153.38 669.65, 1148.37 673.10 C 1143.36 676.55, 1140.32 677.45, 1135.75 679.04 C 1131.18 680.63, 1129.23 681.20, 1125.52 681.05 C 1121.80 680.90, 1120.20 680.36, 1117.17 678.28 C 1114.14 676.20, 1112.55 674.60, 1110.37 670.63 C 1108.18 666.66, 1107.18 664.47, 1106.24 658.42 C 1105.30 652.38, 1105.10 648.17, 1105.67 640.42 C 1106.25 632.68, 1107.25 628.02, 1109.13 619.70 C 1111.00 611.37, 1112.69 606.66, 1115.06 598.79 C 1117.42 590.91, 1119.08 586.88, 1120.95 580.32 C 1122.82 573.76, 1124.54 571.07, 1124.40 565.98 C 1124.26 560.89, 1123.55 557.32, 1120.27 554.86 C 1116.98 552.41, 1113.51 552.86, 1107.99 553.70 C 1102.46 554.54, 1099.52 556.33, 1092.63 559.05 C 1085.74 561.78, 1081.58 563.75, 1073.53 567.34 C 1065.49 570.92, 1061.04 573.07, 1052.39 576.98 C 1043.74 580.88, 1038.97 583.03, 1030.29 586.87 C 1021.61 590.70, 1017.10 592.63, 1008.98 596.15 C 1000.87 599.68, 996.55 601.68, 989.71 604.49 C 982.87 607.30, 979.55 608.39, 974.79 610.19 C 970.02 611.99, 967.91 611.79, 965.86 613.48 C 963.82 615.16, 964.32 616.67, 964.56 618.62 C 964.80 620.57, 965.60 621.94, 967.06 623.22" style="stroke: black; fill: black;"/></svg>