<?xml version="1.0" encoding="UTF-8" standalone="no"?>
<!DOCTYPE svg PUBLIC "-//W3C//DTD SVG 20010904//EN"
              "http://www.w3.org/TR/2001/REC-SVG-20010904/DTD/svg10.dtd">

<svg xmlns="http://www.w3.org/2000/svg"
     width="1.24333in" height="0.393333in"
     viewBox="0 0 373 118">
  <path id="Selection"
        fill="none" stroke="black" stroke-width="1"
        d="M 80.00,82.87
           C 85.11,82.59 99.49,80.74 103.77,82.87
             107.50,84.48 107.50,89.52 103.77,91.26
             101.51,92.32 94.79,91.97 92.00,92.00
             88.40,92.05 71.84,93.65 69.00,94.73
             69.00,94.73 55.00,103.49 55.00,103.49
             43.89,109.65 40.09,111.05 28.00,114.28
             22.66,115.71 7.02,119.23 2.46,115.26
             -0.33,112.56 0.35,109.05 2.46,106.00
             5.92,100.17 11.93,97.53 18.00,94.86
             26.42,91.15 41.48,88.87 51.00,87.00
             54.93,86.23 61.71,85.49 65.00,83.70
             68.92,81.56 74.38,74.71 77.07,71.00
             78.92,68.45 82.16,63.04 82.73,60.00
             83.59,55.44 80.50,51.82 76.00,51.31
             70.48,50.69 61.31,56.39 58.01,48.89
             54.07,39.96 63.99,38.91 70.00,38.97
             72.59,39.06 75.51,39.49 78.00,38.97
             85.45,37.22 101.81,24.13 106.28,18.00
             111.13,11.35 110.38,-0.88 117.91,0.54
             121.91,1.29 122.17,5.75 121.67,9.00
             121.00,13.36 118.60,17.80 117.20,22.00
             117.20,22.00 113.43,33.89 113.43,33.89
             111.15,37.59 107.42,37.45 105.00,33.89
             105.00,33.89 88.00,45.00 88.00,45.00
             99.98,58.54 90.60,72.15 80.00,82.87 Z
           M 206.19,46.00
           C 213.65,38.18 220.61,29.01 230.00,23.13
             233.03,21.23 239.10,17.96 242.35,20.75
             246.98,24.74 243.08,31.66 241.14,36.00
             235.86,47.83 224.55,61.15 216.00,71.00
             219.99,71.00 228.48,69.81 229.46,75.10
             229.76,76.71 229.27,78.32 228.26,79.59
             226.84,81.35 219.56,84.55 217.00,86.00
             217.00,86.00 242.00,79.32 242.00,79.32
             245.02,78.83 249.86,78.57 251.83,81.43
             253.51,83.88 253.00,91.81 253.00,95.00
             253.00,95.00 260.99,87.00 260.99,87.00
             265.10,82.81 271.49,74.46 276.56,83.11
             277.33,84.42 277.58,85.59 278.00,87.00
             280.10,85.87 284.25,82.83 286.07,82.53
             292.17,81.53 293.34,90.72 294.00,95.00
             299.48,91.83 296.05,90.51 297.78,86.21
             298.88,83.46 304.15,79.99 307.00,79.53
             315.56,78.15 317.49,90.63 324.04,90.64
             331.26,90.66 339.69,80.18 344.00,78.78
             347.94,77.50 349.45,80.24 353.09,79.97
             357.14,79.67 362.19,75.80 365.89,76.53
             369.88,77.32 370.50,82.02 368.82,84.57
             367.61,86.42 364.96,87.20 363.00,88.00
             364.85,88.05 367.07,87.96 368.79,88.74
             373.05,90.67 373.28,95.50 370.57,98.89
             367.87,102.27 361.09,104.82 357.00,106.31
             343.99,111.03 336.88,111.45 324.00,114.21
             320.97,114.86 312.27,117.76 310.11,117.39
             305.87,116.66 305.32,111.49 308.43,108.72
             310.84,106.58 320.53,104.51 324.00,103.80
             329.69,102.65 335.54,101.99 341.00,100.00
             338.59,99.78 335.18,99.04 333.00,99.27
             333.00,99.27 327.00,100.67 327.00,100.67
             318.05,102.18 313.79,100.30 310.00,92.00
             308.02,95.33 303.12,101.96 299.79,103.83
             293.41,107.43 286.44,102.60 285.00,96.00
             278.86,98.44 273.87,101.24 270.00,94.00
             270.00,94.00 267.00,94.00 267.00,94.00
             262.81,102.51 249.56,112.64 244.15,99.00
             242.97,96.03 243.03,93.12 243.00,90.00
             243.00,90.00 204.00,100.35 204.00,100.35
             194.00,103.69 190.97,106.43 179.00,108.99
             177.22,109.37 174.80,109.86 173.00,109.70
             164.71,108.97 163.71,101.08 175.00,95.00
             172.84,83.87 184.55,69.52 189.69,60.00
             194.31,51.46 197.25,44.86 196.98,35.00
             196.84,29.60 195.68,28.57 195.48,26.02
             195.17,22.05 198.00,19.53 201.90,20.47
             205.18,21.26 205.81,24.11 206.19,27.00
             207.47,32.55 207.33,40.53 206.19,46.00 Z
           M 230.00,36.00
           C 230.00,36.00 229.00,36.00 229.00,36.00
             229.00,36.00 230.00,37.00 230.00,37.00
             230.00,37.00 230.00,36.00 230.00,36.00 Z
           M 229.00,37.00
           C 221.01,42.72 214.88,50.45 208.74,58.00
             204.85,62.78 200.44,67.28 198.00,73.00
             207.32,67.56 213.52,59.43 219.90,51.00
             224.04,45.53 226.51,43.72 229.00,37.00 Z
           M 194.00,80.00
           C 194.00,80.00 189.00,86.00 189.00,86.00
             189.00,86.00 196.00,83.00 196.00,83.00
             196.00,83.00 194.00,80.00 194.00,80.00 Z
           M 146.00,91.00
           C 148.33,101.24 137.40,100.44 136.24,92.98
             134.68,82.96 147.76,78.63 152.57,82.74
             155.16,84.95 157.33,92.74 146.00,91.00 Z
           M 189.00,86.00
           C 189.00,86.00 188.00,86.00 188.00,86.00
             188.00,86.00 189.00,87.00 189.00,87.00
             189.00,87.00 189.00,86.00 189.00,86.00 Z
           M 215.00,86.00
           C 215.00,86.00 214.00,86.00 214.00,86.00
             214.00,86.00 215.00,87.00 215.00,87.00
             215.00,87.00 215.00,86.00 215.00,86.00 Z
           M 41.00,99.00
           C 41.00,99.00 40.00,99.00 40.00,99.00
             40.00,99.00 41.00,100.00 41.00,100.00
             41.00,100.00 41.00,99.00 41.00,99.00 Z
           M 39.00,100.00
           C 32.34,100.54 24.37,101.85 19.00,106.00
             24.32,105.18 34.69,102.92 39.00,100.00 Z" />
</svg>
